<?xml version="1.0" standalone="no"?>
<!DOCTYPE svg PUBLIC "-//W3C//DTD SVG 1.1//EN" "http://www.w3.org/Graphics/SVG/1.1/DTD/svg11.dtd">
<svg xmlns="http://www.w3.org/2000/svg" width="156" height="50" viewBox="0 0 156 50" fill="none">
<path d="M0 16.5C0 7.3873 7.3873 0 16.5 0H90.5C99.6127 0 107 7.3873 107 16.5V16.5C107 25.6127 99.6127 33 90.5 33H16.5C7.3873 33 0 25.6127 0 16.5V16.5Z" fill="#521BEF"/>
<rect x="4" y="3" width="99" height="27" rx="13.5" fill="black"/>
<path d="M19.9961 20V11.6211H23.5703C25.1641 11.6211 25.9609 12.2715 25.9609 13.5723C25.9609 14.5254 25.4414 15.207 24.4023 15.6172C25.5117 15.8242 26.0664 16.459 26.0664 17.5215C26.0664 19.1738 25.1934 20 23.4473 20H19.9961ZM23.3828 19.1211C24.3828 19.1211 24.8828 18.6133 24.8828 17.5977C24.8828 16.6094 24.2129 16.1152 22.873 16.1152H22.4043V15.4062C24.0059 15.1914 24.8066 14.6133 24.8066 13.6719C24.8066 12.8906 24.3613 12.5 23.4707 12.5H21.0801V19.1211H23.3828ZM33.2676 11.6211V12.5H28.873V15.3125H33.0625V16.1914H28.873V19.1211H33.3555V20H27.7891V11.6211H33.2676ZM34.9961 20V11.6211H36.373L39.4492 18.6113L42.4668 11.6211H43.7852V20H42.8184V13.127L39.8418 20H38.9863L35.9629 13.127V20H34.9961ZM56.1895 11.6211L52.6328 20H51.4316L47.8574 11.6211H49L52.0703 18.875L55.0645 11.6211H56.1895ZM58.5918 11.6211V20H57.5078V11.6211H58.5918ZM60.7656 20V11.6211H61.8496L66.9766 18.3711V11.6211H68.002V20H66.918L61.791 13.1914V20H60.7656ZM73.0469 19.1211C75.0977 19.1211 76.123 17.9414 76.123 15.582C76.123 13.5273 75.0977 12.5 73.0469 12.5H71.084V19.1211H73.0469ZM70 20V11.6211H73.0469C75.8203 11.6211 77.207 12.9414 77.207 15.582C77.207 18.5273 75.8203 20 73.0469 20H70ZM79.6387 15.7871C79.6387 18.0488 80.6602 19.1797 82.7031 19.1797C84.7031 19.1797 85.7031 18.0488 85.7031 15.7871C85.7031 13.5566 84.7031 12.4414 82.7031 12.4414C80.6602 12.4414 79.6387 13.5566 79.6387 15.7871ZM78.4961 15.8223C78.4961 12.9824 79.8984 11.5625 82.7031 11.5625C85.4648 11.5625 86.8457 12.9824 86.8457 15.8223C86.8457 18.6465 85.4648 20.0586 82.7031 20.0586C79.8984 20.0586 78.4961 18.6465 78.4961 15.8223Z" fill="#521BEF"/>
</svg>