<?xml version="1.0" standalone="no"?>
<!DOCTYPE svg PUBLIC "-//W3C//DTD SVG 1.1//EN" "http://www.w3.org/Graphics/SVG/1.1/DTD/svg11.dtd">
<svg xmlns="http://www.w3.org/2000/svg" width="193" height="101" viewBox="0 0 193 101" fill="none">
<rect y="63" width="191" height="38" rx="15" fill="#521BEF"/>
<rect x="2" width="191" height="38" rx="15" fill="#521BEF"/>
<rect x="2" y="65" width="187" height="34" rx="15" fill="black"/>
<rect x="4" y="2" width="187" height="34" rx="15" fill="black"/>
<path d="M49.0986 25V14.5264H53.7861C55.9248 14.5264 56.9941 15.5103 56.9941 17.478C56.9941 19.6118 55.5317 20.9033 52.6069 21.3525L52.3286 19.624C54.0864 19.3066 54.9653 18.6108 54.9653 17.5366C54.9653 16.6675 54.5308 16.2329 53.6616 16.2329H51.0396V25H49.0986ZM63.2271 19.7339C63.2271 22.1704 64.3086 23.3887 66.4717 23.3887C68.5811 23.3887 69.6357 22.1704 69.6357 19.7339C69.6357 17.3364 68.5811 16.1377 66.4717 16.1377C64.3086 16.1377 63.2271 17.3364 63.2271 19.7339ZM61.2129 19.7778C61.2129 16.228 62.9658 14.4531 66.4717 14.4531C69.9238 14.4531 71.6499 16.228 71.6499 19.7778C71.6499 23.3081 69.9238 25.0732 66.4717 25.0732C63.1221 25.0732 61.3691 23.3081 61.2129 19.7778ZM76.7842 24.9854V14.5264H81.5449C83.6836 14.5264 84.7529 15.4614 84.7529 17.3315C84.7529 18.5962 83.9204 19.6436 82.2554 20.4736L85.5732 25H83.127L79.9409 20.437V19.5508C81.7964 19.2334 82.7241 18.5132 82.7241 17.3901C82.7241 16.6187 82.2896 16.2329 81.4204 16.2329H78.7617V24.9854H76.7842ZM96.6401 14.5264V16.2109H93.6372V25H91.6963V16.2109H88.6934V14.5264H96.6401ZM102.983 14.5264V25H101.042V14.5264H102.983ZM115.361 14.5264V16.1963H110.41V18.833H115.112V20.5688H110.388V25H108.483V14.5264H115.361ZM121.953 19.7339C121.953 22.1704 123.034 23.3887 125.197 23.3887C127.307 23.3887 128.361 22.1704 128.361 19.7339C128.361 17.3364 127.307 16.1377 125.197 16.1377C123.034 16.1377 121.953 17.3364 121.953 19.7339ZM119.938 19.7778C119.938 16.228 121.691 14.4531 125.197 14.4531C128.649 14.4531 130.375 16.228 130.375 19.7778C130.375 23.3081 128.649 25.0732 125.197 25.0732C121.848 25.0732 120.095 23.3081 119.938 19.7778ZM125.08 11.7432H127.417L125.666 13.6401H124.025L125.08 11.7432ZM137.451 14.5264V23.3154H141.611V25H135.51V14.5264H137.451ZM148.686 14.5264V25H146.745V14.5264H148.686ZM155.834 19.7339C155.834 22.1704 156.916 23.3887 159.079 23.3887C161.188 23.3887 162.243 22.1704 162.243 19.7339C162.243 17.3364 161.188 16.1377 159.079 16.1377C156.916 16.1377 155.834 17.3364 155.834 19.7339ZM153.82 19.7778C153.82 16.228 155.573 14.4531 159.079 14.4531C162.531 14.4531 164.257 16.228 164.257 19.7778C164.257 23.3081 162.531 25.0732 159.079 25.0732C155.729 25.0732 153.977 23.3081 153.82 19.7778Z" fill="#521BEF"/>
<path d="M65.4482 87.5605C64.5449 87.9023 63.5195 88.0732 62.3721 88.0732C58.6123 88.0732 56.7324 86.2544 56.7324 82.6167C56.7324 79.1743 58.6123 77.4531 62.3721 77.4531C63.5195 77.4531 64.5449 77.624 65.4482 77.9658V79.7236C64.5449 79.333 63.5684 79.1377 62.5186 79.1377C60.0039 79.1377 58.7466 80.2974 58.7466 82.6167C58.7466 85.1313 60.0039 86.3887 62.5186 86.3887C63.5684 86.3887 64.5449 86.1934 65.4482 85.8027V87.5605ZM72.2231 82.7339C72.2231 85.1704 73.3047 86.3887 75.4678 86.3887C77.5771 86.3887 78.6318 85.1704 78.6318 82.7339C78.6318 80.3364 77.5771 79.1377 75.4678 79.1377C73.3047 79.1377 72.2231 80.3364 72.2231 82.7339ZM70.209 82.7778C70.209 79.228 71.9619 77.4531 75.4678 77.4531C78.9199 77.4531 80.646 79.228 80.646 82.7778C80.646 86.3081 78.9199 88.0732 75.4678 88.0732C72.1182 88.0732 70.3652 86.3081 70.209 82.7778ZM85.7803 88V77.5264H87.7212L93.251 85.1582V77.5264H95.1187V88H93.1777L87.6479 80.207V88H85.7803ZM107.467 77.5264V79.2109H104.464V88H102.523V79.2109H99.5205V77.5264H107.467ZM112.946 88H110.954L115.399 77.5264H117.487L122.028 88H119.94L118.747 85.1436H115.268L115.934 83.459H118.043L116.396 79.5259L112.946 88ZM133.454 77.5264V79.2109H130.451V88H128.51V79.2109H125.507V77.5264H133.454ZM139.503 82.7339C139.503 85.1704 140.585 86.3887 142.748 86.3887C144.857 86.3887 145.912 85.1704 145.912 82.7339C145.912 80.3364 144.857 79.1377 142.748 79.1377C140.585 79.1377 139.503 80.3364 139.503 82.7339ZM137.489 82.7778C137.489 79.228 139.242 77.4531 142.748 77.4531C146.2 77.4531 147.926 79.228 147.926 82.7778C147.926 86.3081 146.2 88.0732 142.748 88.0732C139.398 88.0732 137.646 86.3081 137.489 82.7778Z" fill="#521BEF"/>
<line x1="28.5" x2="28.5" y2="38" stroke="#521BEF"/>
<line x1="24.5" y1="63" x2="24.5" y2="101" stroke="#521BEF"/>
</svg>